<?xml version="1.0" encoding="utf-8"?>

<!DOCTYPE svg PUBLIC "-//W3C//DTD SVG 1.1//EN" "http://www.w3.org/Graphics/SVG/1.1/DTD/svg11.dtd">
<svg version="1.1" id="Layer_1" xmlns="http://www.w3.org/2000/svg" xmlns:xlink="http://www.w3.org/1999/xlink" x="0px" y="0px"
	 viewBox="0 0 1670.318 1480.166" enable-background="new 0 0 1670.318 1480.166" xml:space="preserve">
<g>
	<path fill="#C39802" stroke="#C39802" stroke-width="0.5" d="M1270.728,80.205c19.48-7.94,40.6-12.2,61.66-11.63
		c41.48-1.13,82.8,15.66,112.68,44.27c27.64,26.26,45.76,62.62,49.05,100.68c2.41,26.03-0.93,52.79-10.97,77
		c-12.65,31.42-35.82,58.37-64.65,76.05c-16.67,10.07-35.03,17.47-54.22,20.98c-15.39,2.64-31.15,3.95-46.7,2.02
		c-35.82-3.29-70.44-18.89-96.34-43.9c-9.44-8.95-17.7-19.12-24.76-30.04c-20.99-32.54-28.94-72.9-23.17-111.07
		c0.33-2.18,0.56-4.37,0.9-6.55c3.71-17.41,9.5-34.51,18.65-49.85C1210.388,117.765,1238.238,93.455,1270.728,80.205
		 M1316.658,96.005c-28.99,3.59-56.73,16.77-77.67,37.15c-27.28,26.28-42.55,64.59-40.71,102.43c2.2,37.4,20.53,73.66,49.69,97.26
		c30.37,24.65,71.7,36.08,110.27,28.39c21.1-4.15,41.17-13.35,58.18-26.49c29.75-22.9,48.61-58.86,51.61-96.18
		c1.64-22.76-3.25-45.89-13.26-66.35c-14.37-30.72-40.97-55.32-72.56-67.57C1361.558,96.085,1338.768,93.715,1316.658,96.005z"/>
	<path fill="#FDC101" stroke="#FDC101" stroke-width="0.5" d="M1316.658,96.005c22.11-2.29,44.9,0.08,65.55,8.64
		c31.59,12.25,58.19,36.85,72.56,67.57c10.01,20.46,14.9,43.59,13.26,66.35c-3,37.32-21.86,73.28-51.61,96.18
		c-17.01,13.14-37.08,22.34-58.18,26.49c-38.57,7.69-79.9-3.74-110.27-28.39c-29.16-23.6-47.49-59.86-49.69-97.26
		c-1.84-37.84,13.43-76.15,40.71-102.43C1259.928,112.775,1287.668,99.595,1316.658,96.005 M1320.638,128.005
		c-8.77,0.96-17.42,2.99-25.63,6.24c-32.83,12.53-57.99,43.48-62.9,78.36c-2.43,18.99-1.03,38.87,6.67,56.57
		c7.62,18.18,20.8,33.9,37.14,44.87c32.05,21.72,76.65,23.17,109.8,3.02c30.55-17.5,50.68-52.18,49.57-87.52
		c0.92-27.83-11.36-55.42-31.59-74.34c-13.55-13.08-30.98-21.97-49.38-25.81C1343.248,127.105,1331.848,127.235,1320.638,128.005z"
		/>
	<path fill="#C39802" stroke="#C39802" stroke-width="0.5" d="M1320.638,128.005c11.21-0.77,22.61-0.9,33.68,1.39
		c18.4,3.84,35.83,12.73,49.38,25.81c20.23,18.92,32.51,46.51,31.59,74.34c1.11,35.34-19.02,70.02-49.57,87.52
		c-33.15,20.15-77.75,18.7-109.8-3.02c-16.34-10.97-29.52-26.69-37.14-44.87c-7.7-17.7-9.1-37.58-6.67-56.57
		c4.91-34.88,30.07-65.83,62.9-78.36C1303.218,130.995,1311.868,128.965,1320.638,128.005 M1322.438,154.855
		c-21.61,3.22-41.8,15.96-53.24,34.68c-9.48,15.34-14.16,34.26-10.46,52.12c2.61,14.23,9.38,27.66,19.13,38.35
		c14.16,15.24,34.7,24.17,55.46,24.6c19.81-0.33,39.32-8.63,53.41-22.55c11.79-11.92,19.54-27.81,21.6-44.46
		c2.16-16.6-2.5-33.6-11.29-47.69c-10.48-17.12-28.23-29.39-47.73-33.86C1340.548,153.825,1331.368,154.125,1322.438,154.855z"/>
	<path fill="#C39802" stroke="#C39802" stroke-width="0.5" d="M77.318,153.575c187.33,0,374.67,0,562,0c0,19.67,0,39.33,0,59
		c-187.33-0.02-374.67,0.07-562-0.04C77.318,192.885,77.318,173.225,77.318,153.575z"/>
	<path fill="#FFFFFF" stroke="#FFFFFF" stroke-width="0.5" d="M1322.438,154.855c8.93-0.73,18.11-1.03,26.88,1.19
		c19.5,4.47,37.25,16.74,47.73,33.86c8.79,14.09,13.45,31.09,11.29,47.69c-2.06,16.65-9.81,32.54-21.6,44.46
		c-14.09,13.92-33.6,22.22-53.41,22.55c-20.76-0.43-41.3-9.36-55.46-24.6c-9.75-10.69-16.52-24.12-19.13-38.35
		c-3.7-17.86,0.98-36.78,10.46-52.12C1280.638,170.815,1300.828,158.075,1322.438,154.855z"/>
	<path fill="#FDC101" stroke="#FDC101" stroke-width="0.5" d="M1019.408,235.945c51.61-12.6,103.17-25.4,154.8-37.93
		c-0.34,2.18-0.57,4.37-0.9,6.55c-5.77,38.17,2.18,78.53,23.17,111.07c-179.67,36.4-359.35,72.77-539.02,109.16
		c-74.96,15.11-149.86,30.49-224.85,45.43c0.48-2.33,2.62-3.61,4.21-5.15c21.07-20.22,33.92-49.12,33.53-78.44
		c0.01-5.26,0-10.52-0.44-15.75C653.038,325.755,836.248,280.955,1019.408,235.945z"/>
	<path fill="#FDC101" stroke="#FDC101" stroke-width="0.5" d="M77.318,212.535c187.33,0.11,374.67,0.02,562,0.04
		c0,21.67,0,43.33,0,65c-22.77,0.1-45.55-0.2-68.31,0.15c-36.91-0.37-73.83-0.04-110.75-0.16c-58.96,0.01-117.92,0.01-176.88-0.02
		c-46.18,0.13-92.36-0.19-138.54,0.16c-22.5-0.3-45.01-0.05-67.52-0.13C77.318,255.895,77.318,234.215,77.318,212.535z"/>
	<path fill="#C39802" stroke="#C39802" stroke-width="0.5" d="M144.838,277.705c46.18-0.35,92.36-0.03,138.54-0.16
		c58.96,0.03,117.92,0.03,176.88,0.02c36.92,0.12,73.84-0.21,110.75,0.16c-33.94,27.94-68.42,55.27-102.56,82.98
		c0.36,3.41,1.07,6.77,1.46,10.18c0.44,5.23,0.45,10.49,0.44,15.75c0.39,29.32-12.46,58.22-33.53,78.44
		c-1.59,1.54-3.73,2.82-4.21,5.15l-0.06,0.16c-2.62,0.42-4.49,2.39-6.54,3.89c-14.05,10.65-30.7,17.77-48.04,20.82
		c-26.36,4.4-54.39-0.1-77.49-13.79c-27.63-16.19-48.08-44.63-53.42-76.33c-2.75-14.6-2.1-29.63,0.17-44.24
		C213.358,332.775,178.708,305.685,144.838,277.705 M348.568,298.995c-23.21,2.6-45.19,14.93-59.26,33.6
		c-11.48,15.41-18.1,34.67-17.34,53.97c0.88,33.07,22.8,64.5,53.58,76.71c17.19,7.21,36.89,8.79,54.83,3.47
		c11.34-3.17,22.05-8.56,31.24-15.94c20.6-16.1,32.54-42.18,32.57-68.18c-0.84-13.84-4.44-27.6-11.39-39.66
		C416.708,313.385,382.048,295.195,348.568,298.995z"/>
	<path fill="#FDC101" stroke="#FDC101" stroke-width="0.5" d="M348.568,298.995c33.48-3.8,68.14,14.39,84.23,43.97
		c6.95,12.06,10.55,25.82,11.39,39.66c-0.03,26-11.97,52.08-32.57,68.18c-9.19,7.38-19.9,12.77-31.24,15.94
		c-17.94,5.32-37.64,3.74-54.83-3.47c-30.78-12.21-52.7-43.64-53.58-76.71c-0.76-19.3,5.86-38.56,17.34-53.97
		C303.378,313.925,325.358,301.595,348.568,298.995 M347.598,312.015c-32.08,3.43-59.63,31.32-62.13,63.56
		c-0.24,7.02-0.57,14.11,0.5,21.09c2.63,17.81,12.75,34.23,26.93,45.21c22.33,17.61,55.28,20.27,80.13,6.43
		c13.16-6.88,23.78-18.25,30.52-31.43c7.61-15.1,8.78-32.8,5.58-49.22c-4.38-19.86-17.78-37.47-35.58-47.25
		C379.708,312.445,363.288,310.295,347.598,312.015z"/>
	<path fill="#C39802" stroke="#C39802" stroke-width="0.5" d="M347.598,312.015c15.69-1.72,32.11,0.43,45.95,8.39
		c17.8,9.78,31.2,27.39,35.58,47.25c3.2,16.42,2.03,34.12-5.58,49.22c-6.74,13.18-17.36,24.55-30.52,31.43
		c-24.85,13.84-57.8,11.18-80.13-6.43c-14.18-10.98-24.3-27.4-26.93-45.21c-1.07-6.98-0.74-14.07-0.5-21.09
		C287.968,343.335,315.518,315.445,347.598,312.015 M348.738,339.155c-6.2,1.33-12.12,3.91-17.32,7.54
		c-12.03,8.17-19.32,22.45-19.86,36.88c0.13,11.75,4.89,23.33,12.85,31.95c8.75,9.21,21.27,14.49,33.92,14.93
		c12.79-0.68,25.47-6.24,33.99-15.93c7.22-8.2,11.56-18.95,12.01-29.87c-0.36-16.81-10.19-33.32-25.3-40.95
		C369.888,338.585,358.958,337.265,348.738,339.155z"/>
	<path fill="#FFFFFF" stroke="#FFFFFF" stroke-width="0.5" d="M348.738,339.155c10.22-1.89,21.15-0.57,30.29,4.55
		c15.11,7.63,24.94,24.14,25.3,40.95c-0.45,10.92-4.79,21.67-12.01,29.87c-8.52,9.69-21.2,15.25-33.99,15.93
		c-12.65-0.44-25.17-5.72-33.92-14.93c-7.96-8.62-12.72-20.2-12.85-31.95c0.54-14.43,7.83-28.71,19.86-36.88
		C336.618,343.065,342.538,340.485,348.738,339.155z"/>
	<path fill="#FDC101" stroke="#FDC101" stroke-width="0.5" d="M1364.278,387.555c19.19-3.51,37.55-10.91,54.22-20.98
		c29.64,198.09,59.02,396.21,88.68,594.3l-0.54,0.18c-3.29,1.3-6.86,0.67-10.28,0.77c-47.24,0.02-94.48-0.01-141.71,0.01
		c-10.56-167.1-21.69-334.14-32.34-501.22c-1.69-23.67-3-47.37-4.73-71.04C1333.128,391.505,1348.888,390.195,1364.278,387.555z"/>
	<path fill="#FDC101" stroke="#FDC101" stroke-width="0.5" d="M841.208,597.375c5.19-2.11,10.49-4.35,16.1-5.03
		c87.33-0.04,174.67-0.01,262.01-0.02c9.3,0.29,18.69-0.75,27.91,0.85c19.48,3.42,35.38,17.2,46.43,32.98
		c17.82,25.79,25.49,57.43,26.4,88.46c0.02,82.4,0.01,164.8,0.01,247.21c-0.03,15.35,0.04,30.7-0.07,46.05
		c52.43,0.31,104.87,0.04,157.3,0.13c67.22,0.01,134.44-0.01,201.66,0.01c0.85,0,1.72,0.03,2.61,0.08
		c0.45,74.88-0.06,149.76-0.01,224.64c-41.75,0.05-83.5,0-125.24,0.02c-7.18,0.04-14.36-0.18-21.52,0.19
		c-16.27-23.71-41.1-41.96-69.37-48.18c-12.83-2.87-26.1-2.68-39.16-2.01c-33.46,2.61-64.02,22.67-82.74,50.08
		c-44.05-0.25-88.11,0.09-132.17-0.17c-0.1-57.35,0.01-114.71-0.05-172.06c-0.09-21.04,0.21-42.09-0.13-63.11
		c0.37-2.94-3.06-2.29-4.89-2.39c-7.57,0.26-15.17-0.42-22.69,0.44c-0.65,25-0.1,50.03-0.29,75.05
		c-0.02,54.03,0.08,108.06-0.06,162.09c-46.83,0.3-93.68-0.26-140.5,0.29c-17.93-26.23-46.56-45.79-78.4-49.76
		c-10.66-1.16-21.45-1.08-32.14-0.29c-32.7,3.26-62.38,23.01-80.73,49.87c-13.57-0.27-27.19,0.42-40.73-0.39
		c-2.76-10.59-5.99-21.04-8.77-31.62c-23.55-0.53-47.12-0.02-70.68-0.22c-32.66-0.03-65.31,0.09-97.96-0.05
		c-0.15-52.98-0.01-105.96-0.08-158.94c-0.02-8.7,0.2-17.41-0.12-26.1c0.11-4.75-3.13-9.19-7.34-11.14
		c-3.37-0.8-7.04,0.21-10.29-1.29c4.2-7.29,10.45-13.09,16.67-18.63c13.97-11.9,29.52-21.87,45.78-30.33
		c12.69-6.45,25.91-12.28,40-14.86c15.4-38.21,31.93-75.97,49.92-113.03c18.26-37.56,37.91-74.5,60.18-109.85
		c19.91-31.28,41.65-61.77,68.44-87.58C809.758,616.215,824.388,604.745,841.208,597.375 M933.308,632.495
		c-11.38,0.06-22.73,0.88-34.07,1.58c-10.85,1.01-21.8,1.64-32.39,4.35c-5.98,1.33-10.56,5.68-15,9.63
		c-11.07,10.77-20.59,23.02-29.89,35.32c-12.96,17.45-25.07,35.51-36.85,53.77c-22.38,35-43.47,70.84-62.87,107.58
		c-9.07,17.63-18.08,35.33-25.41,53.77c-3.48,9.31-7.41,18.89-7.07,29.02c0.06,5.99-0.08,11.99,0.07,17.99
		c0.11,2.95,0.89,6.89,4.4,7.47c13.57,2.04,27.34,1.42,41.01,1.66c43.37,1.24,86.77,0.87,130.15,0.54
		c48.96-1.39,97.97,0.25,146.93-1.48c17.01-0.29,34.02-0.03,51.03-0.18c7.78-0.32,15.71,0.33,23.35-1.43
		c1.35-2.19,1.16-4.83,1.32-7.28c6.09,0.42,12.2,0.07,18.31,0.25c1.46-0.27,3.42,0.43,4.59-0.74c0.46-2.56,0.35-5.17,0.4-7.74
		c0-89.31,0-178.62,0-267.93c-0.21-9.28,0.45-18.61-0.4-27.86l-0.6-0.49c-7.43-0.27-14.89-0.28-22.31,0.04
		c-0.13-2.43-0.05-4.97-1.33-7.11c-4.25-1.65-8.89-1.09-13.32-1.43c-22.66-0.42-45.32-0.12-67.98-0.21
		C981.358,631.705,957.308,631.135,933.308,632.495 M925.658,1034.085c-4.05,1.62-9.09,4.45-8.96,9.45c0.23,3.67-1.01,8.01,1.78,11
		c2.79,4.22,8.06,5.45,12.83,5.42c23.68,0.03,47.36,0.07,71.04,0c5.05,0.2,10.06-2.23,12.92-6.41c2.62-3,1.42-7.28,1.5-10.88
		c-1.69-5.14-6.88-9.03-12.36-8.91c-16.72-0.32-33.44-0.03-50.16-0.13C944.718,1033.835,935.138,1033.145,925.658,1034.085z"/>
	<path fill="#353527" stroke="#353527" stroke-width="0.5" d="M933.308,632.495c24-1.36,48.05-0.79,72.07-0.91
		c22.66,0.09,45.32-0.21,67.98,0.21c4.43,0.34,9.07-0.22,13.32,1.43c1.28,2.14,1.2,4.68,1.33,7.11c0.58,23.74,0.16,47.49,0.29,71.23
		c0,59,0,118,0,177c-0.11,18.74,0.24,37.49-0.28,56.24c-0.16,2.45,0.03,5.09-1.32,7.28c-7.64,1.76-15.57,1.11-23.35,1.43
		c-17.01,0.15-34.02-0.11-51.03,0.18c-48.96,1.73-97.97,0.09-146.93,1.48c-43.38,0.33-86.78,0.7-130.15-0.54
		c-13.67-0.24-27.44,0.38-41.01-1.66c-3.51-0.58-4.29-4.52-4.4-7.47c-0.15-6-0.01-12-0.07-17.99c-0.34-10.13,3.59-19.71,7.07-29.02
		c7.33-18.44,16.34-36.14,25.41-53.77c19.4-36.74,40.49-72.58,62.87-107.58c11.78-18.26,23.89-36.32,36.85-53.77
		c9.3-12.3,18.82-24.55,29.89-35.32c4.44-3.95,9.02-8.3,15-9.63c10.59-2.71,21.54-3.34,32.39-4.35
		C910.578,633.375,921.928,632.555,933.308,632.495z"/>
	<path fill="#C39802" stroke="#C39802" stroke-width="0.5" d="M1088.008,640.335c7.42-0.32,14.88-0.31,22.31-0.04l0.6,0.49
		c0.85,9.25,0.19,18.58,0.4,27.86c0,89.31,0,178.62,0,267.93c-0.05,2.57,0.06,5.18-0.4,7.74c-1.17,1.17-3.13,0.47-4.59,0.74
		c-6.11-0.18-12.22,0.17-18.31-0.25c0.52-18.75,0.17-37.5,0.28-56.24c0-59,0-118,0-177
		C1088.168,687.825,1088.588,664.075,1088.008,640.335z"/>
	<path fill="#C39802" stroke="#C39802" stroke-width="0.5" d="M1506.638,961.055l0.38-0.12c2.65,1.77,6.23,0.5,9.28,0.89
		c14.72-0.15,29.53,4.5,41.06,13.77c10.33,8.18,18.16,19.66,21.6,32.42c-67.22-0.02-134.44,0-201.66-0.01
		c-52.43-0.09-104.87,0.18-157.3-0.13c0.11-15.35,0.04-30.7,0.07-46.05c44.86,0,89.72-0.01,134.58,0.01
		c47.23-0.02,94.47,0.01,141.71-0.01C1499.778,961.725,1503.348,962.355,1506.638,961.055z"/>
	<path fill="#C39802" stroke="#C39802" stroke-width="0.5" d="M1083.598,995.545c7.52-0.86,15.12-0.18,22.69-0.44
		c1.83,0.1,5.26-0.55,4.89,2.39c0.34,21.02,0.04,42.07,0.13,63.11c0.06,57.35-0.05,114.71,0.05,172.06
		c44.06,0.26,88.12-0.08,132.17,0.17c-9.67,14.19-16.14,30.63-18.16,47.72c-2.34,19.34-0.84,39.4,6.15,57.7
		c-92.3,0.01-184.6-0.02-276.9,0.03c4-10.45,6.35-21.54,6.79-32.72c1.22-18.71-1.11-37.95-8.95-55.12
		c-2.71-6.11-6.03-11.92-9.71-17.47c46.82-0.55,93.67,0.01,140.5-0.29c0.14-54.03,0.04-108.06,0.06-162.09
		C1083.498,1045.575,1082.948,1020.545,1083.598,995.545z"/>
	<path fill="#C39802" stroke="#C39802" stroke-width="0.5" d="M515.258,1002.955l0.25,0.09c3.25,1.5,6.92,0.49,10.29,1.29
		c4.21,1.95,7.45,6.39,7.34,11.14c0.32,8.69,0.1,17.4,0.12,26.1c0.07,52.98-0.07,105.96,0.08,158.94
		c32.65,0.14,65.3,0.02,97.96,0.05c23.56,0.2,47.13-0.31,70.68,0.22c2.78,10.58,6.01,21.03,8.77,31.62
		c13.54,0.81,27.16,0.12,40.73,0.39c-10.07,14.59-16.56,31.66-18.38,49.32c-1.95,18.85-0.55,38.36,6.33,56.15
		c-24.67-0.05-49.34,0.08-74.01-0.06c-3.89,0.31-7.87-2.21-8.03-6.35c8.17-0.07,16.34,0.02,24.52-0.06
		c-8.63-30.92-17.47-61.78-26.16-92.68c-34.99-0.04-69.99-0.19-104.97,0.08c0.03,3.23-0.02,6.46,0.07,9.71
		c-0.95-3.27-1.93-6.53-2.89-9.78c-14.37,0-28.75,0.05-43.12-0.02c-0.01-0.7-0.02-2.09-0.03-2.78c-0.02-11.87,0.08-23.72-0.05-35.58
		c0.61-0.08,1.84-0.24,2.45-0.32c-0.13-56.28-0.02-112.56-0.06-168.84c0.07-6.74-0.34-13.52,0.78-20.2c1.98-1.75,2.6-4.92,5.37-5.68
		C514.258,1005.045,514.598,1003.845,515.258,1002.955z"/>
	<path fill="#C39802" stroke="#C39802" stroke-width="0.5" d="M925.658,1034.085c9.48-0.94,19.06-0.25,28.59-0.46
		c16.72,0.1,33.44-0.19,50.16,0.13c5.48-0.12,10.67,3.77,12.36,8.91c-0.08,3.6,1.12,7.88-1.5,10.88c-2.86,4.18-7.87,6.61-12.92,6.41
		c-23.68,0.07-47.36,0.03-71.04,0c-4.77,0.03-10.04-1.2-12.83-5.42c-2.79-2.99-1.55-7.33-1.78-11
		C916.568,1038.535,921.608,1035.705,925.658,1034.085z"/>
	<path stroke="#000000" stroke-width="0.5" d="M751.478,1232.795c18.35-26.86,48.03-46.61,80.73-49.87
		c10.69-0.79,21.48-0.87,32.14,0.29c31.84,3.97,60.47,23.53,78.4,49.76c3.68,5.55,7,11.36,9.71,17.47
		c7.84,17.17,10.17,36.41,8.95,55.12c-0.44,11.18-2.79,22.27-6.79,32.72c-15.39,39.8-54.12,70.63-97.2,73.19
		c-10.69,0.06-21.48,0.67-32.03-1.38c-38.61-6.65-71.86-35.57-85.96-71.83c-6.88-17.79-8.28-37.3-6.33-56.15
		C734.918,1264.455,741.408,1247.385,751.478,1232.795 M840.928,1235.365c-11.53,1.29-22.63,5.93-31.89,12.89
		c-12.66,9.67-20.68,24.61-23.24,40.2c-2.37,15.09,1.99,30.69,10.26,43.35c10.93,16.62,30.55,26.52,50.22,27.28
		c15.9-0.15,31.72-6.45,43.37-17.29c12.14-11.7,18.92-28.44,19.47-45.19c-0.89-18.77-9.53-37.66-24.86-48.93
		C871.898,1238.775,856.208,1233.465,840.928,1235.365z"/>
	<path stroke="#000000" stroke-width="0.5" d="M1243.528,1232.835c18.72-27.41,49.28-47.47,82.74-50.08
		c13.06-0.67,26.33-0.86,39.16,2.01c28.27,6.22,53.1,24.47,69.37,48.18c9.03,13.36,15.32,28.66,17.67,44.66
		c2.91,20.27,1.56,41.43-5.75,60.68c-10.47,26.95-31.43,49.61-57.3,62.45c-15.43,7.7-32.79,11.45-50.02,10.83
		c-19.29,0.76-38.75-3.94-55.56-13.43c-23.53-13.26-42.56-34.63-52.32-59.88c-6.99-18.3-8.49-38.36-6.15-57.7
		C1227.388,1263.465,1233.858,1247.025,1243.528,1232.835 M1332.798,1235.385c-12.18,1.44-23.9,6.5-33.39,14.24
		c-12.5,10.37-19.97,25.93-21.96,41.9c-1.42,15.31,3.76,30.84,12.76,43.16c11.19,14.93,29.64,23.65,48.12,24.41
		c11.35-0.06,22.62-3.4,32.4-9.11c14.01-7.91,23.86-21.99,28.04-37.37c1.76-7.13,3.29-14.6,1.89-21.92
		c-2.28-17.45-11.4-34.39-26.16-44.33C1362.368,1238.325,1347.388,1233.455,1332.798,1235.385z"/>
	<path fill="#C39802" stroke="#C39802" stroke-width="0.5" d="M1434.798,1232.945c7.16-0.37,14.34-0.15,21.52-0.19
		c41.74-0.02,83.49,0.03,125.24-0.02c4.23-0.32,10.05,0.18,11.12,5.27c0.63,10.85,0.11,21.75,0.28,32.63
		c-0.04,19.67,0.08,39.35-0.06,59.03c0.16,2.64-0.93,5.07-2.57,7.1c-4.36,2.14-9.31,1.34-13.97,1.5
		c-43.22,0.01-86.43-0.03-129.64,0.02c7.31-19.25,8.66-40.41,5.75-60.68C1450.118,1261.605,1443.828,1246.305,1434.798,1232.945z"/>
	<path fill="#969794" stroke="#969794" stroke-width="0.5" d="M840.928,1235.365c15.28-1.9,30.97,3.41,43.33,12.31
		c15.33,11.27,23.97,30.16,24.86,48.93c-0.55,16.75-7.33,33.49-19.47,45.19c-11.65,10.84-27.47,17.14-43.37,17.29
		c-19.67-0.76-39.29-10.66-50.22-27.28c-8.27-12.66-12.63-28.26-10.26-43.35c2.56-15.59,10.58-30.53,23.24-40.2
		C818.298,1241.295,829.398,1236.655,840.928,1235.365z"/>
	<path fill="#969794" stroke="#969794" stroke-width="0.5" d="M1332.798,1235.385c14.59-1.93,29.57,2.94,41.7,10.98
		c14.76,9.94,23.88,26.88,26.16,44.33c1.4,7.32-0.13,14.79-1.89,21.92c-4.18,15.38-14.03,29.46-28.04,37.37
		c-9.78,5.71-21.05,9.05-32.4,9.11c-18.48-0.76-36.93-9.48-48.12-24.41c-9-12.32-14.18-27.85-12.76-43.16
		c1.99-15.97,9.46-31.53,21.96-41.9C1308.898,1241.885,1320.618,1236.825,1332.798,1235.385z"/>
	<path fill="#969794" stroke="#969794" stroke-width="0.5" d="M504.808,1236.325c0.01,0.69,0.02,2.08,0.03,2.78
		c14.37,0.07,28.75,0.02,43.12,0.02c0.96,3.25,1.94,6.51,2.89,9.78c7.64,27.7,15.66,55.3,23.37,82.99
		c-13.98,0.33-27.96-0.21-41.93-0.06c-2.13-0.28-3.78,1.15-5.39,2.28c-1.81,1.68-4.48,0.89-6.6,1.89c-1.74-1.43-5.87,0.6-5.78-2.3
		c4.34,0.36,9.34,1.37,13.08-1.5c-5.23-0.58-10.49-0.34-15.71-0.03c-4.93-0.55-9.88-0.28-14.81-0.37c-0.04-28.39,0-56.78-0.02-85.16
		c-0.03-2.57-0.12-5.14,0.29-7.66c2.27,0.06,4.55,0.19,6.83-0.02C504.338,1238.305,504.648,1236.985,504.808,1236.325z"/>
	<path fill="#353527" stroke="#353527" stroke-width="0.5" d="M550.778,1239.195c34.98-0.27,69.98-0.12,104.97-0.08
		c8.69,30.9,17.53,61.76,26.16,92.68c-8.18,0.08-16.35-0.01-24.52,0.06c-27.73-0.04-55.45-0.13-83.17,0.04
		c-7.71-27.69-15.73-55.29-23.37-82.99C550.758,1245.655,550.808,1242.425,550.778,1239.195z"/>
	<path fill="#C39802" stroke="#C39802" stroke-width="0.5" d="M511.888,1332.175c5.22-0.31,10.48-0.55,15.71,0.03
		c-3.74,2.87-8.74,1.86-13.08,1.5c-0.79-0.25-2.38-0.75-3.17-0.99L511.888,1332.175z"/>
</g>
</svg>
